<?xml version="1.0" standalone="no"?>
<!DOCTYPE svg PUBLIC "-//W3C//DTD SVG 20010904//EN"
 "http://www.w3.org/TR/2001/REC-SVG-20010904/DTD/svg10.dtd">
<svg version="1.0" xmlns="http://www.w3.org/2000/svg"
 width="494.000000pt" height="494.000000pt" viewBox="0 0 494.000000 494.000000"
 preserveAspectRatio="xMidYMid meet">
<metadata>
Created by potrace 1.14, written by Peter Selinger 2001-2017
</metadata>
<g transform="translate(0.000000,494.000000) scale(0.100000,-0.100000)"
fill="#000000" stroke="none">
<path d="M2275 4299 c-209 -51 -415 -213 -547 -430 -20 -34 -39 -66 -41 -72
-2 -6 -37 3 -93 25 -110 44 -183 60 -277 59 -216 -1 -409 -90 -539 -247 -110
-134 -169 -241 -203 -370 -20 -76 -18 -222 3 -304 l17 -65 -63 -75 c-75 -88
-108 -144 -156 -266 -51 -129 -75 -241 -86 -405 -17 -255 7 -412 90 -584 182
-376 529 -522 848 -356 l74 40 75 -60 c112 -89 183 -135 291 -189 194 -96 472
-171 687 -185 184 -12 480 26 645 83 84 29 261 115 326 158 32 22 103 81 157
133 l98 94 27 -21 c99 -79 262 -129 392 -119 187 14 337 110 469 301 110 159
157 318 167 566 6 138 5 152 -26 295 -35 160 -85 311 -127 385 -14 25 -50 75
-80 112 -54 66 -54 67 -39 97 39 75 6 289 -65 422 -115 216 -350 359 -590 359
-67 0 -116 -6 -157 -19 l-60 -18 -12 45 c-35 138 -167 302 -330 407 -91 59
-251 138 -342 168 -178 60 -380 73 -533 36z m-1223 -1519 c82 -25 133 -70 180
-157 52 -97 104 -274 75 -257 -6 4 -28 17 -47 29 -95 59 -228 82 -311 53 -61
-20 -106 -64 -128 -124 -18 -47 -21 -78 -21 -210 0 -172 -5 -193 -64 -262 -28
-34 -36 -53 -36 -82 0 -55 15 -87 49 -105 68 -34 130 -12 191 68 66 88 73 119
74 309 1 143 4 170 18 184 16 16 20 15 72 -10 186 -91 271 -304 206 -516 -70
-229 -180 -335 -350 -335 -114 0 -196 47 -293 168 -90 112 -139 236 -167 424
-14 91 -9 147 22 292 65 304 162 456 343 533 53 23 110 22 187 -2z m3042 -15
c148 -74 241 -231 307 -521 58 -254 2 -525 -148 -711 -59 -74 -95 -105 -164
-140 -45 -23 -67 -28 -129 -28 -170 0 -280 106 -350 335 -65 212 20 425 206
516 52 25 56 26 72 10 14 -14 17 -41 18 -184 1 -190 8 -221 74 -309 61 -80
123 -102 191 -68 34 18 49 50 49 105 0 29 -8 48 -36 82 -59 69 -64 90 -64 262
0 132 -3 163 -21 210 -22 60 -67 104 -128 124 -83 29 -216 6 -311 -53 -19 -12
-41 -25 -47 -29 -29 -17 23 160 75 257 45 85 98 131 177 157 81 27 153 22 229
-15z m-2074 -401 c172 -175 411 -214 631 -103 31 15 70 39 86 53 17 14 39 26
48 26 9 0 54 -24 98 -54 45 -30 109 -63 142 -74 83 -28 214 -45 296 -40 68 5
69 5 84 -25 13 -27 13 -36 -5 -96 -49 -165 -44 -306 20 -485 l31 -88 -49 -57
c-163 -187 -366 -300 -652 -362 -88 -19 -136 -22 -290 -23 -172 0 -195 3 -320
31 -244 56 -431 142 -600 275 l-100 79 17 37 c102 232 121 408 63 593 l-18 59
28 0 c53 0 158 40 232 88 76 50 133 109 171 174 12 21 27 38 32 38 6 0 31 -21
55 -46z"/>
<path d="M2225 1535 c-39 -38 -33 -72 24 -125 l50 -47 -29 -17 c-16 -9 -45
-32 -65 -50 -43 -41 -48 -93 -13 -126 34 -31 67 -25 139 28 114 83 107 81 186
29 107 -71 136 -82 171 -68 38 16 57 57 43 93 -6 15 -38 45 -72 69 -56 38 -61
44 -45 53 71 41 101 73 104 108 2 29 -2 40 -24 57 -43 34 -69 28 -181 -42
l-62 -38 -78 50 c-42 28 -88 51 -100 51 -13 0 -35 -11 -48 -25z"/>
</g>
</svg>
